<svg aria-roledescription="gantt" role="graphics-document document" style="overflow: hidden; max-width: 100%;" xmlns="http://www.w3.org/2000/svg" width="100%" id="graph-div" height="100%" xmlns:xlink="http://www.w3.org/1999/xlink" xmlns:ev="http://www.w3.org/2001/xml-events"><style>@import url("https://cdnjs.cloudflare.com/ajax/libs/font-awesome/6.5.0/css/all.min.css");'</style><g id="viewport-20240118205505413" class="svg-pan-zoom_viewport" transform="matrix(0.6214262247085571,0,0,0.6214262247085571,141.8640899658203,96.33130645751953)" style="transform: matrix(0.621426, 0, 0, 0.621426, 141.864, 96.3313);"><style>#graph-div{font-family:"trebuchet ms",verdana,arial,sans-serif;font-size:16px;fill:#000000;}#graph-div .error-icon{fill:#552222;}#graph-div .error-text{fill:#552222;stroke:#552222;}#graph-div .edge-thickness-normal{stroke-width:2px;}#graph-div .edge-thickness-thick{stroke-width:3.5px;}#graph-div .edge-pattern-solid{stroke-dasharray:0;}#graph-div .edge-pattern-dashed{stroke-dasharray:3;}#graph-div .edge-pattern-dotted{stroke-dasharray:2;}#graph-div .marker{fill:#000000;stroke:#000000;}#graph-div .marker.cross{stroke:#000000;}#graph-div svg{font-family:"trebuchet ms",verdana,arial,sans-serif;font-size:16px;}#graph-div .mermaid-main-font{font-family:"trebuchet ms",verdana,arial,sans-serif;font-family:var(--mermaid-font-family);}#graph-div .exclude-range{fill:#eeeeee;}#graph-div .section{stroke:none;opacity:0.2;}#graph-div .section0{fill:#6eaa49;}#graph-div .section2{fill:#6eaa49;}#graph-div .section1,#graph-div .section3{fill:white;opacity:0.2;}#graph-div .sectionTitle0{fill:#333;}#graph-div .sectionTitle1{fill:#333;}#graph-div .sectionTitle2{fill:#333;}#graph-div .sectionTitle3{fill:#333;}#graph-div .sectionTitle{text-anchor:start;font-family:'trebuchet ms',verdana,arial,sans-serif;font-family:var(--mermaid-font-family);}#graph-div .grid .tick{stroke:lightgrey;opacity:0.8;shape-rendering:crispEdges;}#graph-div .grid .tick text{font-family:"trebuchet ms",verdana,arial,sans-serif;fill:#000000;}#graph-div .grid path{stroke-width:0;}#graph-div .today{fill:none;stroke:red;stroke-width:2px;}#graph-div .task{stroke-width:2;}#graph-div .taskText{text-anchor:middle;font-family:'trebuchet ms',verdana,arial,sans-serif;font-family:var(--mermaid-font-family);}#graph-div .taskTextOutsideRight{fill:black;text-anchor:start;font-family:'trebuchet ms',verdana,arial,sans-serif;font-family:var(--mermaid-font-family);}#graph-div .taskTextOutsideLeft{fill:black;text-anchor:end;}#graph-div .task.clickable{cursor:pointer;}#graph-div .taskText.clickable{cursor:pointer;fill:#003163!important;font-weight:bold;}#graph-div .taskTextOutsideLeft.clickable{cursor:pointer;fill:#003163!important;font-weight:bold;}#graph-div .taskTextOutsideRight.clickable{cursor:pointer;fill:#003163!important;font-weight:bold;}#graph-div .taskText0,#graph-div .taskText1,#graph-div .taskText2,#graph-div .taskText3{fill:white;}#graph-div .task0,#graph-div .task1,#graph-div .task2,#graph-div .task3{fill:#487e3a;stroke:#13540c;}#graph-div .taskTextOutside0,#graph-div .taskTextOutside2{fill:black;}#graph-div .taskTextOutside1,#graph-div .taskTextOutside3{fill:black;}#graph-div .active0,#graph-div .active1,#graph-div .active2,#graph-div .active3{fill:#cde498;stroke:#13540c;}#graph-div .activeText0,#graph-div .activeText1,#graph-div .activeText2,#graph-div .activeText3{fill:black!important;}#graph-div .done0,#graph-div .done1,#graph-div .done2,#graph-div .done3{stroke:grey;fill:lightgrey;stroke-width:2;}#graph-div .doneText0,#graph-div .doneText1,#graph-div .doneText2,#graph-div .doneText3{fill:black!important;}#graph-div .crit0,#graph-div .crit1,#graph-div .crit2,#graph-div .crit3{stroke:#ff8888;fill:red;stroke-width:2;}#graph-div .activeCrit0,#graph-div .activeCrit1,#graph-div .activeCrit2,#graph-div .activeCrit3{stroke:#ff8888;fill:#cde498;stroke-width:2;}#graph-div .doneCrit0,#graph-div .doneCrit1,#graph-div .doneCrit2,#graph-div .doneCrit3{stroke:#ff8888;fill:lightgrey;stroke-width:2;cursor:pointer;shape-rendering:crispEdges;}#graph-div .milestone{transform:rotate(45deg) scale(0.8,0.8);}#graph-div .milestoneText{font-style:italic;}#graph-div .doneCritText0,#graph-div .doneCritText1,#graph-div .doneCritText2,#graph-div .doneCritText3{fill:black!important;}#graph-div .activeCritText0,#graph-div .activeCritText1,#graph-div .activeCritText2,#graph-div .activeCritText3{fill:black!important;}#graph-div .titleText{text-anchor:middle;font-size:18px;fill:#000000;font-family:'trebuchet ms',verdana,arial,sans-serif;font-family:var(--mermaid-font-family);}#graph-div :root{--mermaid-font-family:"trebuchet ms",verdana,arial,sans-serif;}</style><g></g><g text-anchor="middle" font-family="sans-serif" font-size="10" fill="none" transform="translate(75, 410)" class="grid"><path d="M0,-375V0H1610V-375" stroke="currentColor" class="domain"></path><g transform="translate(56,0)" opacity="1" class="tick"><line y2="-375" stroke="currentColor"></line><text font-size="10" stroke="none" style="text-anchor: middle;" dy="1em" y="3" fill="#000">90</text></g><g transform="translate(268,0)" opacity="1" class="tick"><line y2="-375" stroke="currentColor"></line><text font-size="10" stroke="none" style="text-anchor: middle;" dy="1em" y="3" fill="#000">105</text></g><g transform="translate(480,0)" opacity="1" class="tick"><line y2="-375" stroke="currentColor"></line><text font-size="10" stroke="none" style="text-anchor: middle;" dy="1em" y="3" fill="#000">120</text></g><g transform="translate(692,0)" opacity="1" class="tick"><line y2="-375" stroke="currentColor"></line><text font-size="10" stroke="none" style="text-anchor: middle;" dy="1em" y="3" fill="#000">135</text></g><g transform="translate(904,0)" opacity="1" class="tick"><line y2="-375" stroke="currentColor"></line><text font-size="10" stroke="none" style="text-anchor: middle;" dy="1em" y="3" fill="#000">150</text></g><g transform="translate(1116,0)" opacity="1" class="tick"><line y2="-375" stroke="currentColor"></line><text font-size="10" stroke="none" style="text-anchor: middle;" dy="1em" y="3" fill="#000">165</text></g><g transform="translate(1328,0)" opacity="1" class="tick"><line y2="-375" stroke="currentColor"></line><text font-size="10" stroke="none" style="text-anchor: middle;" dy="1em" y="3" fill="#000">180</text></g><g transform="translate(1539,0)" opacity="1" class="tick"><line y2="-375" stroke="currentColor"></line><text font-size="10" stroke="none" style="text-anchor: middle;" dy="1em" y="3" fill="#000">195</text></g></g><g><rect class="section section1" height="24" width="1722.5" y="168" x="0"></rect><rect class="section section2" height="24" width="1722.5" y="216" x="0"></rect><rect class="section section3" height="24" width="1722.5" y="264" x="0"></rect><rect class="section section0" height="24" width="1722.5" y="312" x="0"></rect><rect class="section section1" height="24" width="1722.5" y="360" x="0"></rect><rect class="section section0" height="24" width="1722.5" y="48" x="0"></rect><rect class="section section1" height="24" width="1722.5" y="192" x="0"></rect><rect class="section section0" height="24" width="1722.5" y="72" x="0"></rect><rect class="section section2" height="24" width="1722.5" y="240" x="0"></rect><rect class="section section0" height="24" width="1722.5" y="96" x="0"></rect><rect class="section section3" height="24" width="1722.5" y="288" x="0"></rect><rect class="section section0" height="24" width="1722.5" y="120" x="0"></rect><rect class="section section0" height="24" width="1722.5" y="336" x="0"></rect><rect class="section section0" height="24" width="1722.5" y="144" x="0"></rect><rect class="section section1" height="24" width="1722.5" y="384" x="0"></rect></g><g><rect class="task task1" transform-origin="82px 180px" height="20" width="14" y="170" x="75" ry="3" rx="3" id="task6"></rect><rect class="task task2" transform-origin="167px 228px" height="20" width="14" y="218" x="160" ry="3" rx="3" id="task8"></rect><rect class="task task3" transform-origin="195px 276px" height="20" width="14" y="266" x="188" ry="3" rx="3" id="task10"></rect><rect class="task task0" transform-origin="223px 324px" height="20" width="14" y="314" x="216" ry="3" rx="3" id="task12"></rect><rect class="task task1" transform-origin="258.5px 372px" height="20" width="29" y="362" x="244" ry="3" rx="3" id="task14"></rect><rect class="task milestone  task0" transform-origin="1501px 60px" height="20" width="20" y="50" x="1491" ry="3" rx="3" id="task1"></rect><rect class="task task1" transform-origin="1508.5px 204px" height="20" width="15" y="194" x="1501" ry="3" rx="3" id="task7"></rect><rect class="task milestone  task0" transform-origin="1572px 84px" height="20" width="20" y="74" x="1562" ry="3" rx="3" id="task2"></rect><rect class="task task2" transform-origin="1579px 252px" height="20" width="14" y="242" x="1572" ry="3" rx="3" id="task9"></rect><rect class="task milestone  task0" transform-origin="1614px 108px" height="20" width="20" y="98" x="1604" ry="3" rx="3" id="task3"></rect><rect class="task task3" transform-origin="1621.5px 300px" height="20" width="15" y="290" x="1614" ry="3" rx="3" id="task11"></rect><rect class="task milestone  task0" transform-origin="1643px 132px" height="20" width="20" y="122" x="1633" ry="3" rx="3" id="task4"></rect><rect class="task task0" transform-origin="1650px 348px" height="20" width="14" y="338" x="1643" ry="3" rx="3" id="task13"></rect><rect class="task milestone  task0" transform-origin="1671px 156px" height="20" width="20" y="146" x="1661" ry="3" rx="3" id="task5"></rect><rect class="task task1" transform-origin="1678px 396px" height="20" width="14" y="386" x="1671" ry="3" rx="3" id="task15"></rect><text class="taskTextOutsideRight taskTextOutside1  width-28.733333587646484" y="183.5" x="94" font-size="11" id="task6-text">Task1   </text><text class="taskTextOutsideRight taskTextOutside2  width-28.733333587646484" y="231.5" x="179" font-size="11" id="task8-text">Task2  </text><text class="taskTextOutsideRight taskTextOutside3  width-28.733333587646484" y="279.5" x="207" font-size="11" id="task10-text">Task3   </text><text class="taskTextOutsideRight taskTextOutside0  width-28.733333587646484" y="327.5" x="235" font-size="11" id="task12-text">Task4    </text><text class="taskText taskText1  width-28.733333587646484" y="375.5" x="258.5" font-size="11" id="task14-text">Task5    </text><text class="taskTextOutsideRight taskTextOutside0  milestoneText width-120.41666412353516" y="63.5" x="1516" font-size="11" id="task1-text">Second Activation task 1 </text><text class="taskTextOutsideRight taskTextOutside1  width-28.733333587646484" y="207.5" x="1521" font-size="11" id="task7-text">Task1   </text><text class="taskTextOutsideRight taskTextOutside0  milestoneText width-120.41666412353516" y="87.5" x="1587" font-size="11" id="task2-text">Second Activation task 2 </text><text class="taskTextOutsideRight taskTextOutside2  width-28.733333587646484" y="255.5" x="1591" font-size="11" id="task9-text">Task2  </text><text class="taskTextOutsideLeft taskTextOutside0  milestoneText" y="111.5" x="1599" font-size="11" id="task3-text">Second Activation task 3 </text><text class="taskTextOutsideRight taskTextOutside3  width-28.733333587646484" y="303.5" x="1634" font-size="11" id="task11-text">Task3   </text><text class="taskTextOutsideLeft taskTextOutside0  milestoneText" y="135.5" x="1628" font-size="11" id="task4-text">Second Activation task 4 </text><text class="taskTextOutsideRight taskTextOutside0  width-28.733333587646484" y="351.5" x="1662" font-size="11" id="task13-text">Task4    </text><text class="taskTextOutsideLeft taskTextOutside0  milestoneText" y="159.5" x="1656" font-size="11" id="task5-text">Second Activation task 5 </text><text class="taskTextOutsideRight taskTextOutside1  width-28.733333587646484" y="399.5" x="1690" font-size="11" id="task15-text">Task5    </text></g><g><text class="sectionTitle sectionTitle0" font-size="11" y="110" x="10" dy="0em"><tspan x="10" alignment-baseline="central"></tspan></text><text class="sectionTitle sectionTitle1" font-size="11" y="194" x="10" dy="0em"><tspan x="10" alignment-baseline="central">Task1</tspan></text><text class="sectionTitle sectionTitle2" font-size="11" y="242" x="10" dy="0em"><tspan x="10" alignment-baseline="central">Task2</tspan></text><text class="sectionTitle sectionTitle3" font-size="11" y="290" x="10" dy="0em"><tspan x="10" alignment-baseline="central">Task3</tspan></text><text class="sectionTitle sectionTitle0" font-size="11" y="338" x="10" dy="0em"><tspan x="10" alignment-baseline="central">Task4</tspan></text><text class="sectionTitle sectionTitle1" font-size="11" y="386" x="10" dy="0em"><tspan x="10" alignment-baseline="central">Task5</tspan></text></g><g class="today"><line class="today" y2="435" y1="25" x2="24088018174" x1="24088018174"></line></g><text class="titleText" y="25" x="880">20000Hz, 100 ticks delay, NO preemption, NO timeslicing</text></g><defs><style id="svg-pan-zoom-controls-styles" type="text/css">.svg-pan-zoom-control { cursor: pointer; fill: black; fill-opacity: 0.333; } .svg-pan-zoom-control:hover { fill-opacity: 0.8; } .svg-pan-zoom-control-background { fill: white; fill-opacity: 0.5; } .svg-pan-zoom-control-background { fill-opacity: 0.8; }</style></defs><g id="svg-pan-zoom-controls" transform="translate(950 635) scale(0.75)" class="svg-pan-zoom-control"><g id="svg-pan-zoom-zoom-in" transform="translate(30.5 5) scale(0.015)" class="svg-pan-zoom-control"><rect x="0" y="0" width="1500" height="1400" class="svg-pan-zoom-control-background"></rect><path d="M1280 576v128q0 26 -19 45t-45 19h-320v320q0 26 -19 45t-45 19h-128q-26 0 -45 -19t-19 -45v-320h-320q-26 0 -45 -19t-19 -45v-128q0 -26 19 -45t45 -19h320v-320q0 -26 19 -45t45 -19h128q26 0 45 19t19 45v320h320q26 0 45 19t19 45zM1536 1120v-960 q0 -119 -84.5 -203.5t-203.5 -84.5h-960q-119 0 -203.5 84.5t-84.5 203.5v960q0 119 84.5 203.5t203.5 84.5h960q119 0 203.5 -84.5t84.5 -203.5z" class="svg-pan-zoom-control-element"></path></g><g id="svg-pan-zoom-reset-pan-zoom" transform="translate(5 35) scale(0.4)" class="svg-pan-zoom-control"><rect x="2" y="2" width="182" height="58" class="svg-pan-zoom-control-background"></rect><path d="M33.051,20.632c-0.742-0.406-1.854-0.609-3.338-0.609h-7.969v9.281h7.769c1.543,0,2.701-0.188,3.473-0.562c1.365-0.656,2.048-1.953,2.048-3.891C35.032,22.757,34.372,21.351,33.051,20.632z" class="svg-pan-zoom-control-element"></path><path d="M170.231,0.5H15.847C7.102,0.5,0.5,5.708,0.5,11.84v38.861C0.5,56.833,7.102,61.5,15.847,61.5h154.384c8.745,0,15.269-4.667,15.269-10.798V11.84C185.5,5.708,178.976,0.5,170.231,0.5z M42.837,48.569h-7.969c-0.219-0.766-0.375-1.383-0.469-1.852c-0.188-0.969-0.289-1.961-0.305-2.977l-0.047-3.211c-0.03-2.203-0.41-3.672-1.142-4.406c-0.732-0.734-2.103-1.102-4.113-1.102h-7.05v13.547h-7.055V14.022h16.524c2.361,0.047,4.178,0.344,5.45,0.891c1.272,0.547,2.351,1.352,3.234,2.414c0.731,0.875,1.31,1.844,1.737,2.906s0.64,2.273,0.64,3.633c0,1.641-0.414,3.254-1.242,4.84s-2.195,2.707-4.102,3.363c1.594,0.641,2.723,1.551,3.387,2.73s0.996,2.98,0.996,5.402v2.32c0,1.578,0.063,2.648,0.19,3.211c0.19,0.891,0.635,1.547,1.333,1.969V48.569z M75.579,48.569h-26.18V14.022h25.336v6.117H56.454v7.336h16.781v6H56.454v8.883h19.125V48.569z M104.497,46.331c-2.44,2.086-5.887,3.129-10.34,3.129c-4.548,0-8.125-1.027-10.731-3.082s-3.909-4.879-3.909-8.473h6.891c0.224,1.578,0.662,2.758,1.316,3.539c1.196,1.422,3.246,2.133,6.15,2.133c1.739,0,3.151-0.188,4.236-0.562c2.058-0.719,3.087-2.055,3.087-4.008c0-1.141-0.504-2.023-1.512-2.648c-1.008-0.609-2.607-1.148-4.796-1.617l-3.74-0.82c-3.676-0.812-6.201-1.695-7.576-2.648c-2.328-1.594-3.492-4.086-3.492-7.477c0-3.094,1.139-5.664,3.417-7.711s5.623-3.07,10.036-3.07c3.685,0,6.829,0.965,9.431,2.895c2.602,1.93,3.966,4.73,4.093,8.402h-6.938c-0.128-2.078-1.057-3.555-2.787-4.43c-1.154-0.578-2.587-0.867-4.301-0.867c-1.907,0-3.428,0.375-4.565,1.125c-1.138,0.75-1.706,1.797-1.706,3.141c0,1.234,0.561,2.156,1.682,2.766c0.721,0.406,2.25,0.883,4.589,1.43l6.063,1.43c2.657,0.625,4.648,1.461,5.975,2.508c2.059,1.625,3.089,3.977,3.089,7.055C108.157,41.624,106.937,44.245,104.497,46.331z M139.61,48.569h-26.18V14.022h25.336v6.117h-18.281v7.336h16.781v6h-16.781v8.883h19.125V48.569z M170.337,20.14h-10.336v28.43h-7.266V20.14h-10.383v-6.117h27.984V20.14z" class="svg-pan-zoom-control-element"></path></g><g id="svg-pan-zoom-zoom-out" transform="translate(30.5 70) scale(0.015)" class="svg-pan-zoom-control"><rect x="0" y="0" width="1500" height="1400" class="svg-pan-zoom-control-background"></rect><path d="M1280 576v128q0 26 -19 45t-45 19h-896q-26 0 -45 -19t-19 -45v-128q0 -26 19 -45t45 -19h896q26 0 45 19t19 45zM1536 1120v-960q0 -119 -84.5 -203.5t-203.5 -84.5h-960q-119 0 -203.5 84.5t-84.5 203.5v960q0 119 84.5 203.5t203.5 84.5h960q119 0 203.5 -84.5 t84.5 -203.5z" class="svg-pan-zoom-control-element"></path></g></g></svg>